<?xml version="1.0" encoding="UTF-8" standalone="no"?>
<!DOCTYPE svg PUBLIC "-//W3C//DTD SVG 1.1//EN"
 "http://www.w3.org/Graphics/SVG/1.1/DTD/svg11.dtd">
<!-- Generated by graphviz version 2.40.1 (20161225.0304)
 -->
<!-- Title: cturtle::RawTurtle Pages: 1 -->
<svg width="697pt" height="241pt"
 viewBox="0.00 0.00 697.00 241.00" xmlns="http://www.w3.org/2000/svg" xmlns:xlink="http://www.w3.org/1999/xlink">
<g id="graph0" class="graph" transform="scale(1 1) rotate(0) translate(4 237)">
<title>cturtle::RawTurtle</title>
<polygon fill="#ffffff" stroke="transparent" points="-4,4 -4,-237 693,-237 693,4 -4,4"/>
<!-- Node1 -->
<g id="node1" class="node">
<title>Node1</title>
<polygon fill="#bfbfbf" stroke="#000000" points="564,-128.5 564,-147.5 689,-147.5 689,-128.5 564,-128.5"/>
<text text-anchor="middle" x="626.5" y="-135.5" font-family="Hack" font-size="10.00" fill="#000000">cturtle::RawTurtle</text>
</g>
<!-- Node2 -->
<g id="node2" class="node">
<title>Node2</title>
<g id="a_node2"><a xlink:href="classcturtle_1_1AffineTransform.html" target="_top" xlink:title="The AffineTransform class provides a myriad of functions to simply transform points. This class it the backbone of almost all cartesian plane math in CTurtle. An adapted 3x3 matrix of the following link: http://www.opengl&#45;tutorial.org/beginners&#45;tutorials/tutorial&#45;3&#45;matrices/. ">
<polygon fill="#ffffff" stroke="#000000" points="306,-213.5 306,-232.5 467,-232.5 467,-213.5 306,-213.5"/>
<text text-anchor="middle" x="386.5" y="-220.5" font-family="Hack" font-size="10.00" fill="#000000">cturtle::AffineTransform</text>
</a>
</g>
</g>
<!-- Node2&#45;&gt;Node1 -->
<g id="edge1" class="edge">
<title>Node2&#45;&gt;Node1</title>
<path fill="none" stroke="#9a32cd" stroke-dasharray="5,2" d="M477.3965,-216.4996C500.3925,-212.7799 524.6178,-206.9897 546,-198 574.9229,-185.8399 602.9709,-161.1169 617.0754,-147.5093"/>
<polygon fill="#9a32cd" stroke="#9a32cd" points="476.6508,-213.0722 467.2815,-218.0186 477.6904,-219.9946 476.6508,-213.0722"/>
<text text-anchor="middle" x="515.5" y="-217" font-family="Hack" font-size="10.00" fill="#000000"> transform</text>
</g>
<!-- Node3 -->
<g id="node3" class="node">
<title>Node3</title>
<g id="a_node3"><a xlink:href="classcturtle_1_1Polygon.html" target="_top" xlink:title="The polygon class merely holds a vector of points and a function to draw this series to an image...">
<polygon fill="#ffffff" stroke="#000000" points="330,-128.5 330,-147.5 443,-147.5 443,-128.5 330,-128.5"/>
<text text-anchor="middle" x="386.5" y="-135.5" font-family="Hack" font-size="10.00" fill="#000000">cturtle::Polygon</text>
</a>
</g>
</g>
<!-- Node3&#45;&gt;Node1 -->
<g id="edge2" class="edge">
<title>Node3&#45;&gt;Node1</title>
<path fill="none" stroke="#9a32cd" stroke-dasharray="5,2" d="M453.1074,-138C487.7804,-138 529.9238,-138 563.9801,-138"/>
<polygon fill="#9a32cd" stroke="#9a32cd" points="453.0728,-134.5001 443.0727,-138 453.0727,-141.5001 453.0728,-134.5001"/>
<text text-anchor="middle" x="515.5" y="-141" font-family="Hack" font-size="10.00" fill="#000000"> fillAccum</text>
</g>
<!-- Node4 -->
<g id="node4" class="node">
<title>Node4</title>
<g id="a_node4"><a xlink:href="classcturtle_1_1IDrawableGeometry.html" target="_top" xlink:title="IDrawableGeometry is a base class, intended to be inherited from by all drawable objects. This class just contains a simple virtual drawing function, intended to be inherited from and to overload the draw function. This allows for the storage of drawable geometry in a generic fashion. ">
<polygon fill="#ffffff" stroke="#000000" points="0,-177.5 0,-196.5 173,-196.5 173,-177.5 0,-177.5"/>
<text text-anchor="middle" x="86.5" y="-184.5" font-family="Hack" font-size="10.00" fill="#000000">cturtle::IDrawableGeometry</text>
</a>
</g>
</g>
<!-- Node4&#45;&gt;Node1 -->
<g id="edge7" class="edge">
<title>Node4&#45;&gt;Node1</title>
<path fill="none" stroke="#9a32cd" stroke-dasharray="5,2" d="M183.4332,-182.939C276.6455,-178.3003 421.3686,-169.1724 546,-153 557.1375,-151.5548 569.067,-149.5731 580.2392,-147.5236"/>
<polygon fill="#9a32cd" stroke="#9a32cd" points="182.988,-179.4565 173.1713,-183.4419 183.3307,-186.4481 182.988,-179.4565"/>
<text text-anchor="middle" x="386.5" y="-178" font-family="Hack" font-size="10.00" fill="#000000"> cursor</text>
</g>
<!-- Node4&#45;&gt;Node3 -->
<g id="edge3" class="edge">
<title>Node4&#45;&gt;Node3</title>
<path fill="none" stroke="#191970" d="M154.6843,-175.8632C207.6526,-167.2117 280.232,-155.3571 329.9883,-147.2302"/>
<polygon fill="#191970" stroke="#191970" points="154.0037,-172.4279 144.6987,-177.4942 155.1322,-179.3364 154.0037,-172.4279"/>
</g>
<!-- Node5 -->
<g id="node5" class="node">
<title>Node5</title>
<g id="a_node5"><a xlink:href="classcturtle_1_1TurtleScreen.html" target="_top" xlink:title="cturtle::TurtleScreen">
<polygon fill="#ffffff" stroke="#000000" points="315,-26.5 315,-45.5 458,-45.5 458,-26.5 315,-26.5"/>
<text text-anchor="middle" x="386.5" y="-33.5" font-family="Hack" font-size="10.00" fill="#000000">cturtle::TurtleScreen</text>
</a>
</g>
</g>
<!-- Node5&#45;&gt;Node1 -->
<g id="edge4" class="edge">
<title>Node5&#45;&gt;Node1</title>
<path fill="none" stroke="#9a32cd" stroke-dasharray="5,2" d="M468.5284,-39.2789C494.3331,-42.7823 522.2678,-49.2618 546,-61 578.7635,-77.2052 607.0269,-111.452 619.5768,-128.268"/>
<polygon fill="#9a32cd" stroke="#9a32cd" points="468.7311,-35.7776 458.3797,-38.0357 467.8799,-42.7257 468.7311,-35.7776"/>
<text text-anchor="middle" x="515.5" y="-64" font-family="Hack" font-size="10.00" fill="#000000"> screen</text>
</g>
<!-- Node6 -->
<g id="node6" class="node">
<title>Node6</title>
<g id="a_node6"><a xlink:href="structcturtle_1_1Color.html" target="_top" xlink:title="Color: Unsigned 8&#45;bit RGB Color Implementation Just contains R, G and B elements. Color Defines an in...">
<polygon fill="#ffffff" stroke="#000000" points="36,-.5 36,-19.5 137,-19.5 137,-.5 36,-.5"/>
<text text-anchor="middle" x="86.5" y="-7.5" font-family="Hack" font-size="10.00" fill="#000000">cturtle::Color</text>
</a>
</g>
</g>
<!-- Node6&#45;&gt;Node1 -->
<g id="edge8" class="edge">
<title>Node6&#45;&gt;Node1</title>
<path fill="none" stroke="#9a32cd" stroke-dasharray="5,2" d="M124.6445,-22.6888C144.3286,-28.9793 168.8076,-36.406 191,-42 312.2847,-72.5723 345.0506,-69.1975 467,-97 510.2077,-106.8506 559.5651,-119.8031 591.7856,-128.49"/>
<polygon fill="#9a32cd" stroke="#9a32cd" points="125.7041,-19.3531 115.1125,-19.6121 123.5539,-26.0147 125.7041,-19.3531"/>
<text text-anchor="middle" x="386.5" y="-111" font-family="Hack" font-size="10.00" fill="#000000"> fillColor</text>
<text text-anchor="middle" x="386.5" y="-100" font-family="Hack" font-size="10.00" fill="#000000">penColor</text>
</g>
<!-- Node6&#45;&gt;Node5 -->
<g id="edge5" class="edge">
<title>Node6&#45;&gt;Node5</title>
<path fill="none" stroke="#9a32cd" stroke-dasharray="5,2" d="M147.0901,-15.2511C195.5913,-19.4546 263.7308,-25.36 314.9195,-29.7964"/>
<polygon fill="#9a32cd" stroke="#9a32cd" points="147.3166,-11.7577 137.0517,-14.3811 146.7121,-18.7316 147.3166,-11.7577"/>
<text text-anchor="middle" x="239.5" y="-30" font-family="Hack" font-size="10.00" fill="#000000"> backgroundColor</text>
</g>
<!-- Node6&#45;&gt;Node6 -->
<g id="edge6" class="edge">
<title>Node6&#45;&gt;Node6</title>
<path fill="none" stroke="#9a32cd" stroke-dasharray="5,2" d="M58.1275,-28.6539C59.3135,-33.9368 68.771,-38 86.5,-38 113.5156,-38 121.3248,-28.5653 109.9276,-19.7571"/>
<polygon fill="#9a32cd" stroke="#9a32cd" points="61.2735,-30.1981 63.0724,-19.7571 55.1551,-26.7974 61.2735,-30.1981"/>
<text text-anchor="middle" x="86.5" y="-151" font-family="Hack" font-size="10.00" fill="#000000"> yellow4</text>
<text text-anchor="middle" x="86.5" y="-140" font-family="Hack" font-size="10.00" fill="#000000">wheat2</text>
<text text-anchor="middle" x="86.5" y="-129" font-family="Hack" font-size="10.00" fill="#000000">SteelBlue2</text>
<text text-anchor="middle" x="86.5" y="-118" font-family="Hack" font-size="10.00" fill="#000000">SpringGreen4</text>
<text text-anchor="middle" x="86.5" y="-107" font-family="Hack" font-size="10.00" fill="#000000">SlateGray1</text>
<text text-anchor="middle" x="86.5" y="-96" font-family="Hack" font-size="10.00" fill="#000000">SlateBlue2</text>
<text text-anchor="middle" x="86.5" y="-85" font-family="Hack" font-size="10.00" fill="#000000">sea_green</text>
<text text-anchor="middle" x="86.5" y="-74" font-family="Hack" font-size="10.00" fill="#000000">PaleGreen4</text>
<text text-anchor="middle" x="86.5" y="-63" font-family="Hack" font-size="10.00" fill="#000000">OrangeRed3</text>
<text text-anchor="middle" x="86.5" y="-52" font-family="Hack" font-size="10.00" fill="#000000">OrangeRed</text>
<text text-anchor="middle" x="86.5" y="-41" font-family="Hack" font-size="10.00" fill="#000000">...</text>
</g>
</g>
</svg>
