<?xml version="1.0" encoding="UTF-8" standalone="no"?>
<!DOCTYPE svg PUBLIC "-//W3C//DTD SVG 1.1//EN"
 "http://www.w3.org/Graphics/SVG/1.1/DTD/svg11.dtd">
<!-- Generated by graphviz version 2.40.1 (20161225.0304)
 -->
<!-- Title: cturtle::Turtle Pages: 1 -->
<!--zoomable 254 -->
<svg id="main" version="1.1" xmlns="http://www.w3.org/2000/svg" xmlns:xlink="http://www.w3.org/1999/xlink" xml:space="preserve" onload="init(evt)">
<style type="text/css"><![CDATA[
.edge:hover path { stroke: red; }
.edge:hover polygon { stroke: red; fill: red; }
]]></style>
<script type="text/javascript"><![CDATA[
var edges = document.getElementsByTagName('g');
if (edges && edges.length) {
  for (var i=0;i<edges.length;i++) {
    if (edges[i].id.substr(0,4)=='edge') {
      edges[i].setAttribute('class','edge');
    }
  }
}
]]></script>
        <defs>
                <circle id="rim" cx="0" cy="0" r="7"/>
                <circle id="rim2" cx="0" cy="0" r="3.5"/>
                <g id="zoomPlus">
                        <use xlink:href="#rim" fill="#404040">
                                <set attributeName="fill" to="#808080" begin="zoomplus.mouseover" end="zoomplus.mouseout"/>
                        </use>
                        <path d="M-4,0h8M0,-4v8" fill="none" stroke="white" stroke-width="1.5" pointer-events="none"/>
                </g>
                <g id="zoomMin">
                        <use xlink:href="#rim" fill="#404040">
                                <set attributeName="fill" to="#808080" begin="zoomminus.mouseover" end="zoomminus.mouseout"/>
                        </use>
                        <path d="M-4,0h8" fill="none" stroke="white" stroke-width="1.5" pointer-events="none"/>
                </g>
                <g id="dirArrow">
                        <path fill="none" stroke="white" stroke-width="1.5" d="M0,-3.0v7 M-2.5,-0.5L0,-3.0L2.5,-0.5"/>
                </g>
               <g id="resetDef">
                       <use xlink:href="#rim2" fill="#404040">
                               <set attributeName="fill" to="#808080" begin="reset.mouseover" end="reset.mouseout"/>
                       </use>
               </g>
        </defs>

<script type="text/javascript">
var viewWidth = 679;
var viewHeight = 254;
var sectionId = 'dynsection-0';
</script>
<script xlink:href="svgpan.js"/>
<svg id="graph" class="graph">
<g id="viewport">
<title>cturtle::Turtle</title>
<polygon fill="#ffffff" stroke="transparent" points="-4,4 -4,-250 675,-250 675,4 -4,4"/>
<!-- Node1 -->
<g id="node1" class="node">
<title>Node1</title>
<polygon fill="#bfbfbf" stroke="#000000" points="564,-135.5 564,-154.5 671,-154.5 671,-135.5 564,-135.5"/>
<text text-anchor="middle" x="617.5" y="-142.5" font-family="Hack" font-size="10.00" fill="#000000">cturtle::Turtle</text>
</g>
<!-- Node2 -->
<g id="node2" class="node">
<title>Node2</title>
<g id="a_node2"><a xlink:href="classcturtle_1_1AffineTransform.html" target="_top" xlink:title="The AffineTransform class provides a myriad of functions to simply transform points. This class it the backbone of almost all cartesian plane math in CTurtle. An adapted 3x3 matrix of the following link: http://www.opengl&#45;tutorial.org/beginners&#45;tutorials/tutorial&#45;3&#45;matrices/. ">
<polygon fill="#ffffff" stroke="#000000" points="6,-226.5 6,-245.5 167,-245.5 167,-226.5 6,-226.5"/>
<text text-anchor="middle" x="86.5" y="-233.5" font-family="Hack" font-size="10.00" fill="#000000">cturtle::AffineTransform</text>
</a>
</g>
</g>
<!-- Node2&#45;&gt;Node1 -->
<g id="edge1" class="edge">
<title>Node2&#45;&gt;Node1</title>
<path fill="none" stroke="#9a32cd" stroke-dasharray="5,2" d="M177.1626,-238.3647C271.8813,-238.0549 423.4634,-229.6305 546,-186 567.7032,-178.2724 590.3877,-164.0482 604.2351,-154.5554"/>
<polygon fill="#9a32cd" stroke="#9a32cd" points="177.0383,-234.8646 167.0393,-238.3675 177.0404,-241.8646 177.0383,-234.8646"/>
<text text-anchor="middle" x="377.5" y="-235" font-family="Hack" font-size="10.00" fill="#000000"> transform</text>
</g>
<!-- Node3 -->
<g id="node3" class="node">
<title>Node3</title>
<g id="a_node3"><a xlink:href="structcturtle_1_1PenState.html" target="_top" xlink:title="cturtle::PenState">
<polygon fill="#ffffff" stroke="#000000" points="318,-173.5 318,-192.5 437,-192.5 437,-173.5 318,-173.5"/>
<text text-anchor="middle" x="377.5" y="-180.5" font-family="Hack" font-size="10.00" fill="#000000">cturtle::PenState</text>
</a>
</g>
</g>
<!-- Node2&#45;&gt;Node3 -->
<g id="edge3" class="edge">
<title>Node2&#45;&gt;Node3</title>
<path fill="none" stroke="#9a32cd" stroke-dasharray="5,2" d="M145.4694,-224.5648C160.3226,-221.7255 176.24,-218.7182 191,-216 235.1409,-207.8712 285.2327,-199.0289 322.3797,-192.5451"/>
<polygon fill="#9a32cd" stroke="#9a32cd" points="144.546,-221.178 135.3837,-226.4979 145.8638,-228.0528 144.546,-221.178"/>
<text text-anchor="middle" x="239.5" y="-219" font-family="Hack" font-size="10.00" fill="#000000"> transform</text>
</g>
<!-- Node3&#45;&gt;Node1 -->
<g id="edge2" class="edge">
<title>Node3&#45;&gt;Node1</title>
<path fill="none" stroke="#9a32cd" stroke-dasharray="5,2" d="M447.3447,-173.8789C477.7136,-169.6995 513.672,-164.4635 546,-159 553.9821,-157.651 562.4419,-156.1015 570.6417,-154.5361"/>
<polygon fill="#9a32cd" stroke="#9a32cd" points="446.7077,-170.4334 437.2734,-175.2546 447.6551,-177.369 446.7077,-170.4334"/>
<text text-anchor="middle" x="506.5" y="-174" font-family="Hack" font-size="10.00" fill="#000000"> state</text>
</g>
<!-- Node4 -->
<g id="node4" class="node">
<title>Node4</title>
<g id="a_node4"><a xlink:href="classcturtle_1_1IDrawableGeometry.html" target="_top" xlink:title="IDrawableGeometry is a base class, intended to be inherited from by all drawable objects. This class just contains a simple virtual drawing function, intended to be inherited from and to overload the draw function. This allows for the storage of drawable geometry in a generic fashion. ">
<polygon fill="#ffffff" stroke="#000000" points="0,-177.5 0,-196.5 173,-196.5 173,-177.5 0,-177.5"/>
<text text-anchor="middle" x="86.5" y="-184.5" font-family="Hack" font-size="10.00" fill="#000000">cturtle::IDrawableGeometry</text>
</a>
</g>
</g>
<!-- Node4&#45;&gt;Node3 -->
<g id="edge4" class="edge">
<title>Node4&#45;&gt;Node3</title>
<path fill="none" stroke="#9a32cd" stroke-dasharray="5,2" d="M183.2816,-182.2062C185.8813,-182.1299 188.4579,-182.0608 191,-182 234.0988,-180.9695 244.8896,-181.7592 288,-182 297.6341,-182.0538 307.8513,-182.1402 317.8041,-182.2403"/>
<polygon fill="#9a32cd" stroke="#9a32cd" points="183.0451,-178.7119 173.1637,-182.5339 183.2718,-185.7082 183.0451,-178.7119"/>
<text text-anchor="middle" x="239.5" y="-185" font-family="Hack" font-size="10.00" fill="#000000"> cursor</text>
</g>
<!-- Node6 -->
<g id="node6" class="node">
<title>Node6</title>
<g id="a_node6"><a xlink:href="classcturtle_1_1Polygon.html" target="_top" xlink:title="The polygon class merely holds a vector of points and a function to draw this series to an image...">
<polygon fill="#ffffff" stroke="#000000" points="321,-135.5 321,-154.5 434,-154.5 434,-135.5 321,-135.5"/>
<text text-anchor="middle" x="377.5" y="-142.5" font-family="Hack" font-size="10.00" fill="#000000">cturtle::Polygon</text>
</a>
</g>
</g>
<!-- Node4&#45;&gt;Node6 -->
<g id="edge8" class="edge">
<title>Node4&#45;&gt;Node6</title>
<path fill="none" stroke="#191970" d="M162.5449,-176.0244C212.0042,-168.886 275.4527,-159.7285 320.5662,-153.2172"/>
<polygon fill="#191970" stroke="#191970" points="161.9298,-172.5769 152.5324,-177.4695 162.9299,-179.5051 161.9298,-172.5769"/>
</g>
<!-- Node5 -->
<g id="node5" class="node">
<title>Node5</title>
<g id="a_node5"><a xlink:href="structcturtle_1_1Color.html" target="_top" xlink:title="Color: Unsigned 8&#45;bit RGB Color Implementation Just contains R, G and B elements. Color Defines an in...">
<polygon fill="#ffffff" stroke="#000000" points="36,-.5 36,-19.5 137,-19.5 137,-.5 36,-.5"/>
<text text-anchor="middle" x="86.5" y="-7.5" font-family="Hack" font-size="10.00" fill="#000000">cturtle::Color</text>
</a>
</g>
</g>
<!-- Node5&#45;&gt;Node3 -->
<g id="edge5" class="edge">
<title>Node5&#45;&gt;Node3</title>
<path fill="none" stroke="#9a32cd" stroke-dasharray="5,2" d="M106.9611,-25.7599C152.9325,-60.9333 263.6782,-144.2943 306,-164 314.1506,-167.795 323.1897,-170.9353 332.0221,-173.495"/>
<polygon fill="#9a32cd" stroke="#9a32cd" points="108.9806,-22.8979 98.9155,-19.5896 104.7207,-28.4525 108.9806,-22.8979"/>
<text text-anchor="middle" x="239.5" y="-167" font-family="Hack" font-size="10.00" fill="#000000"> fillColor</text>
<text text-anchor="middle" x="239.5" y="-156" font-family="Hack" font-size="10.00" fill="#000000">penColor</text>
</g>
<!-- Node5&#45;&gt;Node5 -->
<g id="edge6" class="edge">
<title>Node5&#45;&gt;Node5</title>
<path fill="none" stroke="#9a32cd" stroke-dasharray="5,2" d="M58.1275,-28.6539C59.3135,-33.9368 68.771,-38 86.5,-38 113.5156,-38 121.3248,-28.5653 109.9276,-19.7571"/>
<polygon fill="#9a32cd" stroke="#9a32cd" points="61.2735,-30.1981 63.0724,-19.7571 55.1551,-26.7974 61.2735,-30.1981"/>
<text text-anchor="middle" x="86.5" y="-151" font-family="Hack" font-size="10.00" fill="#000000"> yellow4</text>
<text text-anchor="middle" x="86.5" y="-140" font-family="Hack" font-size="10.00" fill="#000000">wheat2</text>
<text text-anchor="middle" x="86.5" y="-129" font-family="Hack" font-size="10.00" fill="#000000">SteelBlue2</text>
<text text-anchor="middle" x="86.5" y="-118" font-family="Hack" font-size="10.00" fill="#000000">SpringGreen4</text>
<text text-anchor="middle" x="86.5" y="-107" font-family="Hack" font-size="10.00" fill="#000000">SlateGray1</text>
<text text-anchor="middle" x="86.5" y="-96" font-family="Hack" font-size="10.00" fill="#000000">SlateBlue2</text>
<text text-anchor="middle" x="86.5" y="-85" font-family="Hack" font-size="10.00" fill="#000000">sea_green</text>
<text text-anchor="middle" x="86.5" y="-74" font-family="Hack" font-size="10.00" fill="#000000">PaleGreen4</text>
<text text-anchor="middle" x="86.5" y="-63" font-family="Hack" font-size="10.00" fill="#000000">OrangeRed3</text>
<text text-anchor="middle" x="86.5" y="-52" font-family="Hack" font-size="10.00" fill="#000000">OrangeRed</text>
<text text-anchor="middle" x="86.5" y="-41" font-family="Hack" font-size="10.00" fill="#000000">...</text>
</g>
<!-- Node7 -->
<g id="node7" class="node">
<title>Node7</title>
<g id="a_node7"><a xlink:href="classcturtle_1_1TurtleScreen.html" target="_top" xlink:title="cturtle::TurtleScreen">
<polygon fill="#ffffff" stroke="#000000" points="306,-97.5 306,-116.5 449,-116.5 449,-97.5 306,-97.5"/>
<text text-anchor="middle" x="377.5" y="-104.5" font-family="Hack" font-size="10.00" fill="#000000">cturtle::TurtleScreen</text>
</a>
</g>
</g>
<!-- Node5&#45;&gt;Node7 -->
<g id="edge10" class="edge">
<title>Node5&#45;&gt;Node7</title>
<path fill="none" stroke="#9a32cd" stroke-dasharray="5,2" d="M147.334,-14.5032C189.9307,-20.1833 246.4344,-33.0169 288,-62 299.5286,-70.0388 294.5003,-79.9199 306,-88 311.5699,-91.9136 317.8981,-95.0211 324.4319,-97.4885"/>
<polygon fill="#9a32cd" stroke="#9a32cd" points="147.7264,-11.0252 137.3722,-13.2704 146.8666,-17.9722 147.7264,-11.0252"/>
<text text-anchor="middle" x="239.5" y="-65" font-family="Hack" font-size="10.00" fill="#000000"> backgroundColor</text>
</g>
<!-- Node6&#45;&gt;Node1 -->
<g id="edge7" class="edge">
<title>Node6&#45;&gt;Node1</title>
<path fill="none" stroke="#9a32cd" stroke-dasharray="5,2" d="M444.4484,-145C482.1143,-145 528.511,-145 563.7788,-145"/>
<polygon fill="#9a32cd" stroke="#9a32cd" points="444.0728,-141.5001 434.0727,-145 444.0727,-148.5001 444.0728,-141.5001"/>
<text text-anchor="middle" x="506.5" y="-148" font-family="Hack" font-size="10.00" fill="#000000"> fillAccum</text>
</g>
<!-- Node7&#45;&gt;Node1 -->
<g id="edge9" class="edge">
<title>Node7&#45;&gt;Node1</title>
<path fill="none" stroke="#9a32cd" stroke-dasharray="5,2" d="M459.0328,-116.9399C486.7037,-120.629 517.7571,-125.1163 546,-130 555.2485,-131.5992 565.1245,-133.5273 574.4925,-135.4604"/>
<polygon fill="#9a32cd" stroke="#9a32cd" points="459.3744,-113.4547 449.0027,-115.6176 458.4594,-120.3947 459.3744,-113.4547"/>
<text text-anchor="middle" x="506.5" y="-133" font-family="Hack" font-size="10.00" fill="#000000"> screen</text>
</g>
<!-- Node8 -->
<g id="node8" class="node">
<title>Node8</title>
<g id="a_node8"><a xlink:href="structcturtle_1_1ivec2.html" target="_top" xlink:title="Represents a coordinate pair (e.g, x &amp; y) This class is represented as a low&#45;precision point...">
<polygon fill="#ffffff" stroke="#000000" points="327,-59.5 327,-78.5 428,-78.5 428,-59.5 327,-59.5"/>
<text text-anchor="middle" x="377.5" y="-66.5" font-family="Hack" font-size="10.00" fill="#000000">cturtle::ivec2</text>
</a>
</g>
</g>
<!-- Node8&#45;&gt;Node1 -->
<g id="edge11" class="edge">
<title>Node8&#45;&gt;Node1</title>
<path fill="none" stroke="#9a32cd" stroke-dasharray="5,2" d="M438.4276,-76.3052C471.0685,-81.4485 511.5395,-89.8275 546,-103 567.6504,-111.2758 590.3485,-125.7542 604.2133,-135.3602"/>
<polygon fill="#9a32cd" stroke="#9a32cd" points="438.5335,-72.7815 428.1226,-74.747 437.4869,-79.7028 438.5335,-72.7815"/>
<text text-anchor="middle" x="506.5" y="-106" font-family="Hack" font-size="10.00" fill="#000000"> travelPoints</text>
</g>
</g>
</svg>
        <g id="navigator" transform="translate(0 0)" fill="#404254">
                <rect fill="#f2f5e9" fill-opacity="0.5" stroke="#606060" stroke-width=".5" x="0" y="0" width="60" height="60"/>
                <use id="zoomplus" xlink:href="#zoomPlus" x="17" y="9" onmousedown="handleZoom(evt,'in')"/>
                <use id="zoomminus" xlink:href="#zoomMin" x="42" y="9" onmousedown="handleZoom(evt,'out')"/>
                <use id="reset" xlink:href="#resetDef" x="30" y="36" onmousedown="handleReset()"/>
                <g id="arrowUp" xlink:href="#dirArrow" transform="translate(30 24)" onmousedown="handlePan(0,-1)">
                  <use xlink:href="#rim" fill="#404040">
                        <set attributeName="fill" to="#808080" begin="arrowUp.mouseover" end="arrowUp.mouseout"/>
                  </use>
                  <path fill="none" stroke="white" stroke-width="1.5" d="M0,-3.0v7 M-2.5,-0.5L0,-3.0L2.5,-0.5"/>
                </g>
                <g id="arrowRight" xlink:href="#dirArrow" transform="rotate(90) translate(36 -43)" onmousedown="handlePan(1,0)">
                  <use xlink:href="#rim" fill="#404040">
                        <set attributeName="fill" to="#808080" begin="arrowRight.mouseover" end="arrowRight.mouseout"/>
                  </use>
                  <path fill="none" stroke="white" stroke-width="1.5" d="M0,-3.0v7 M-2.5,-0.5L0,-3.0L2.5,-0.5"/>
                </g>
                <g id="arrowDown" xlink:href="#dirArrow" transform="rotate(180) translate(-30 -48)" onmousedown="handlePan(0,1)">
                  <use xlink:href="#rim" fill="#404040">
                        <set attributeName="fill" to="#808080" begin="arrowDown.mouseover" end="arrowDown.mouseout"/>
                  </use>
                  <path fill="none" stroke="white" stroke-width="1.5" d="M0,-3.0v7 M-2.5,-0.5L0,-3.0L2.5,-0.5"/>
                </g>
                <g id="arrowLeft" xlink:href="#dirArrow" transform="rotate(270) translate(-36 17)" onmousedown="handlePan(-1,0)">
                  <use xlink:href="#rim" fill="#404040">
                        <set attributeName="fill" to="#808080" begin="arrowLeft.mouseover" end="arrowLeft.mouseout"/>
                  </use>
                  <path fill="none" stroke="white" stroke-width="1.5" d="M0,-3.0v7 M-2.5,-0.5L0,-3.0L2.5,-0.5"/>
                </g>
        </g>
        <svg viewBox="0 0 15 15" width="100%" height="30px" preserveAspectRatio="xMaxYMin meet">
         <g id="arrow_out" transform="scale(0.3 0.3)">
          <a xlink:href="classcturtle_1_1Turtle__coll__graph_org.svg" target="_base">
           <rect id="button" ry="5" rx="5" y="6" x="6" height="38" width="38"
                fill="#f2f5e9" fill-opacity="0.5" stroke="#606060" stroke-width="1.0"/>
           <path id="arrow"
             d="M 11.500037,31.436501 C 11.940474,20.09759 22.043105,11.32322 32.158766,21.979434 L 37.068811,17.246167 C 37.068811,17.246167 37.088388,32 37.088388,32 L 22.160133,31.978069 C 22.160133,31.978069 26.997745,27.140456 26.997745,27.140456 C 18.528582,18.264221 13.291696,25.230495 11.500037,31.436501 z"
             style="fill:#404040;"/>
          </a>
         </g>
        </svg>
</svg>
