<?xml version="1.0" encoding="UTF-8" standalone="no"?>
<!DOCTYPE svg PUBLIC "-//W3C//DTD SVG 1.1//EN"
 "http://www.w3.org/Graphics/SVG/1.1/DTD/svg11.dtd">
<!-- Generated by graphviz version 2.40.1 (20161225.0304)
 -->
<!-- Title: cturtle::Line Pages: 1 -->
<svg width="300pt" height="106pt"
 viewBox="0.00 0.00 300.00 106.00" xmlns="http://www.w3.org/2000/svg" xmlns:xlink="http://www.w3.org/1999/xlink">
<g id="graph0" class="graph" transform="scale(1 1) rotate(0) translate(4 102)">
<title>cturtle::Line</title>
<polygon fill="#ffffff" stroke="transparent" points="-4,4 -4,-102 296,-102 296,4 -4,4"/>
<!-- Node2 -->
<g id="node1" class="node">
<title>Node2</title>
<polygon fill="#bfbfbf" stroke="#000000" points="116,-.5 116,-19.5 211,-19.5 211,-.5 116,-.5"/>
<text text-anchor="middle" x="163.5" y="-7.5" font-family="Hack" font-size="10.00" fill="#000000">cturtle::Line</text>
</g>
<!-- Node3 -->
<g id="node2" class="node">
<title>Node3</title>
<g id="a_node2"><a xlink:href="classcturtle_1_1IDrawableGeometry.html" target="_top" xlink:title="IDrawableGeometry is a base class, intended to be inherited from by all drawable objects. This class just contains a simple virtual drawing function, intended to be inherited from and to overload the draw function. This allows for the storage of drawable geometry in a generic fashion. ">
<polygon fill="#ffffff" stroke="#000000" points="0,-78.5 0,-97.5 173,-97.5 173,-78.5 0,-78.5"/>
<text text-anchor="middle" x="86.5" y="-85.5" font-family="Hack" font-size="10.00" fill="#000000">cturtle::IDrawableGeometry</text>
</a>
</g>
</g>
<!-- Node3&#45;&gt;Node2 -->
<g id="edge1" class="edge">
<title>Node3&#45;&gt;Node2</title>
<path fill="none" stroke="#191970" d="M103.3363,-70.9451C118.8619,-55.2178 141.356,-32.4316 153.9811,-19.6426"/>
<polygon fill="#191970" stroke="#191970" points="100.4762,-68.8602 95.9417,-78.4357 105.4578,-73.778 100.4762,-68.8602"/>
</g>
<!-- Node4 -->
<g id="node3" class="node">
<title>Node4</title>
<g id="a_node3"><a xlink:href="structcturtle_1_1ivec2.html" target="_top" xlink:title="Represents a coordinate pair (e.g, x &amp; y) This class is represented as a low&#45;precision point...">
<polygon fill="#ffffff" stroke="#000000" points="191,-78.5 191,-97.5 292,-97.5 292,-78.5 191,-78.5"/>
<text text-anchor="middle" x="241.5" y="-85.5" font-family="Hack" font-size="10.00" fill="#000000">cturtle::ivec2</text>
</a>
</g>
</g>
<!-- Node4&#45;&gt;Node2 -->
<g id="edge2" class="edge">
<title>Node4&#45;&gt;Node2</title>
<path fill="none" stroke="#9a32cd" stroke-dasharray="5,2" d="M224.4451,-70.9451C208.7178,-55.2178 185.9316,-32.4316 173.1426,-19.6426"/>
<polygon fill="#9a32cd" stroke="#9a32cd" points="222.3897,-73.8395 231.9357,-78.4357 227.3395,-68.8897 222.3897,-73.8395"/>
<text text-anchor="middle" x="233" y="-52" font-family="Hack" font-size="10.00" fill="#000000"> pointA</text>
<text text-anchor="middle" x="233" y="-41" font-family="Hack" font-size="10.00" fill="#000000">pointB</text>
</g>
</g>
</svg>
