<?xml version="1.0" encoding="UTF-8" standalone="no"?>
<!DOCTYPE svg PUBLIC "-//W3C//DTD SVG 1.1//EN"
 "http://www.w3.org/Graphics/SVG/1.1/DTD/svg11.dtd">
<!-- Generated by graphviz version 2.40.1 (20161225.0304)
 -->
<!-- Title: cturtle::TurtleScreen Pages: 1 -->
<svg width="221pt" height="196pt"
 viewBox="0.00 0.00 221.00 196.00" xmlns="http://www.w3.org/2000/svg" xmlns:xlink="http://www.w3.org/1999/xlink">
<g id="graph0" class="graph" transform="scale(1 1) rotate(0) translate(4 192)">
<title>cturtle::TurtleScreen</title>
<polygon fill="#ffffff" stroke="transparent" points="-4,4 -4,-192 217,-192 217,4 -4,4"/>
<!-- Node1 -->
<g id="node1" class="node">
<title>Node1</title>
<polygon fill="#bfbfbf" stroke="#000000" points="0,-.5 0,-19.5 143,-19.5 143,-.5 0,-.5"/>
<text text-anchor="middle" x="71.5" y="-7.5" font-family="Hack" font-size="10.00" fill="#000000">cturtle::TurtleScreen</text>
</g>
<!-- Node2 -->
<g id="node2" class="node">
<title>Node2</title>
<g id="a_node2"><a xlink:href="structcturtle_1_1Color.html" target="_top" xlink:title="Color: Unsigned 8&#45;bit RGB Color Implementation Just contains R, G and B elements. Color Defines an in...">
<polygon fill="#ffffff" stroke="#000000" points="21,-118 21,-137 122,-137 122,-118 21,-118"/>
<text text-anchor="middle" x="71.5" y="-125" font-family="Hack" font-size="10.00" fill="#000000">cturtle::Color</text>
</a>
</g>
</g>
<!-- Node2&#45;&gt;Node1 -->
<g id="edge1" class="edge">
<title>Node2&#45;&gt;Node1</title>
<path fill="none" stroke="#9a32cd" stroke-dasharray="5,2" d="M71.5,-107.5662C71.5,-82.0834 71.5,-38.9662 71.5,-19.7484"/>
<polygon fill="#9a32cd" stroke="#9a32cd" points="68.0001,-107.8844 71.5,-117.8845 75.0001,-107.8845 68.0001,-107.8844"/>
<text text-anchor="middle" x="120" y="-41" font-family="Hack" font-size="10.00" fill="#000000"> backgroundColor</text>
</g>
<!-- Node2&#45;&gt;Node2 -->
<g id="edge2" class="edge">
<title>Node2&#45;&gt;Node2</title>
<path fill="none" stroke="#9a32cd" stroke-dasharray="5,2" d="M95.9475,-140.613C117.3289,-146.6674 140,-142.2964 140,-127.5 140,-110.4375 109.8529,-107.2383 86.3004,-117.9023"/>
<polygon fill="#9a32cd" stroke="#9a32cd" points="96.8944,-137.233 86.3004,-137.0977 94.4977,-143.8099 96.8944,-137.233"/>
<text text-anchor="middle" x="176.5" y="-180" font-family="Hack" font-size="10.00" fill="#000000"> yellow4</text>
<text text-anchor="middle" x="176.5" y="-169" font-family="Hack" font-size="10.00" fill="#000000">wheat2</text>
<text text-anchor="middle" x="176.5" y="-158" font-family="Hack" font-size="10.00" fill="#000000">SteelBlue2</text>
<text text-anchor="middle" x="176.5" y="-147" font-family="Hack" font-size="10.00" fill="#000000">SpringGreen4</text>
<text text-anchor="middle" x="176.5" y="-136" font-family="Hack" font-size="10.00" fill="#000000">SlateGray1</text>
<text text-anchor="middle" x="176.5" y="-125" font-family="Hack" font-size="10.00" fill="#000000">SlateBlue2</text>
<text text-anchor="middle" x="176.5" y="-114" font-family="Hack" font-size="10.00" fill="#000000">sea_green</text>
<text text-anchor="middle" x="176.5" y="-103" font-family="Hack" font-size="10.00" fill="#000000">PaleGreen4</text>
<text text-anchor="middle" x="176.5" y="-92" font-family="Hack" font-size="10.00" fill="#000000">OrangeRed3</text>
<text text-anchor="middle" x="176.5" y="-81" font-family="Hack" font-size="10.00" fill="#000000">OrangeRed</text>
<text text-anchor="middle" x="176.5" y="-70" font-family="Hack" font-size="10.00" fill="#000000">...</text>
</g>
</g>
</svg>
