<?xml version="1.0" encoding="UTF-8" standalone="no"?>
<!DOCTYPE svg PUBLIC "-//W3C//DTD SVG 1.1//EN"
 "http://www.w3.org/Graphics/SVG/1.1/DTD/svg11.dtd">
<!-- Generated by graphviz version 2.40.1 (20161225.0304)
 -->
<!-- Title: Graphical Class Hierarchy Pages: 1 -->
<svg width="378pt" height="180pt"
 viewBox="0.00 0.00 378.00 180.00" xmlns="http://www.w3.org/2000/svg" xmlns:xlink="http://www.w3.org/1999/xlink">
<g id="graph0" class="graph" transform="scale(1 1) rotate(0) translate(4 176)">
<title>Graphical Class Hierarchy</title>
<polygon fill="#ffffff" stroke="transparent" points="-4,4 -4,-176 374,-176 374,4 -4,4"/>
<!-- Node0 -->
<g id="node1" class="node">
<title>Node0</title>
<g id="a_node1"><a xlink:href="classcturtle_1_1IDrawableGeometry.html" target="_top" xlink:title="IDrawableGeometry is a base class, intended to be inherited from by all drawable objects. This class just contains a simple virtual drawing function, intended to be inherited from and to overload the draw function. This allows for the storage of drawable geometry in a generic fashion. ">
<polygon fill="#ffffff" stroke="#000000" points="0,-76.5 0,-95.5 173,-95.5 173,-76.5 0,-76.5"/>
<text text-anchor="middle" x="86.5" y="-83.5" font-family="Hack" font-size="10.00" fill="#000000">cturtle::IDrawableGeometry</text>
</a>
</g>
</g>
<!-- Node1 -->
<g id="node2" class="node">
<title>Node1</title>
<g id="a_node2"><a xlink:href="classcturtle_1_1Circle.html" target="_top" xlink:title="The Circle class holds a radius and total number of steps, used to generate and draw a circles geomet...">
<polygon fill="#ffffff" stroke="#000000" points="236,-152.5 236,-171.5 343,-171.5 343,-152.5 236,-152.5"/>
<text text-anchor="middle" x="289.5" y="-159.5" font-family="Hack" font-size="10.00" fill="#000000">cturtle::Circle</text>
</a>
</g>
</g>
<!-- Node0&#45;&gt;Node1 -->
<g id="edge1" class="edge">
<title>Node0&#45;&gt;Node1</title>
<path fill="none" stroke="#191970" d="M113.2749,-100.398C137.6611,-113.0382 174.9549,-131.1998 209,-143 219.4472,-146.621 230.8926,-149.7827 241.7905,-152.4338"/>
<polygon fill="#191970" stroke="#191970" points="114.7655,-97.2276 104.2837,-95.6839 111.515,-103.4272 114.7655,-97.2276"/>
</g>
<!-- Node2 -->
<g id="node3" class="node">
<title>Node2</title>
<g id="a_node3"><a xlink:href="classcturtle_1_1CompoundPolygon.html" target="_top" xlink:title="cturtle::CompoundPolygon">
<polygon fill="#ffffff" stroke="#000000" points="209,-114.5 209,-133.5 370,-133.5 370,-114.5 209,-114.5"/>
<text text-anchor="middle" x="289.5" y="-121.5" font-family="Hack" font-size="10.00" fill="#000000">cturtle::CompoundPolygon</text>
</a>
</g>
</g>
<!-- Node0&#45;&gt;Node2 -->
<g id="edge2" class="edge">
<title>Node0&#45;&gt;Node2</title>
<path fill="none" stroke="#191970" d="M147.4968,-97.4181C176.5425,-102.8552 210.8816,-109.2832 238.5156,-114.4561"/>
<polygon fill="#191970" stroke="#191970" points="147.9367,-93.9398 137.4634,-95.54 146.6487,-100.8202 147.9367,-93.9398"/>
</g>
<!-- Node3 -->
<g id="node4" class="node">
<title>Node3</title>
<g id="a_node4"><a xlink:href="classcturtle_1_1Line.html" target="_top" xlink:title="The Line class holds two points and the functionality to draw a line between them on a specified canv...">
<polygon fill="#ffffff" stroke="#000000" points="242,-76.5 242,-95.5 337,-95.5 337,-76.5 242,-76.5"/>
<text text-anchor="middle" x="289.5" y="-83.5" font-family="Hack" font-size="10.00" fill="#000000">cturtle::Line</text>
</a>
</g>
</g>
<!-- Node0&#45;&gt;Node3 -->
<g id="edge3" class="edge">
<title>Node0&#45;&gt;Node3</title>
<path fill="none" stroke="#191970" d="M183.4175,-86C203.6896,-86 224.2059,-86 241.7231,-86"/>
<polygon fill="#191970" stroke="#191970" points="183.1791,-82.5001 173.1791,-86 183.1791,-89.5001 183.1791,-82.5001"/>
</g>
<!-- Node4 -->
<g id="node5" class="node">
<title>Node4</title>
<g id="a_node5"><a xlink:href="classcturtle_1_1Polygon.html" target="_top" xlink:title="The polygon class merely holds a vector of points and a function to draw this series to an image...">
<polygon fill="#ffffff" stroke="#000000" points="233,-38.5 233,-57.5 346,-57.5 346,-38.5 233,-38.5"/>
<text text-anchor="middle" x="289.5" y="-45.5" font-family="Hack" font-size="10.00" fill="#000000">cturtle::Polygon</text>
</a>
</g>
</g>
<!-- Node0&#45;&gt;Node4 -->
<g id="edge4" class="edge">
<title>Node0&#45;&gt;Node4</title>
<path fill="none" stroke="#191970" d="M147.4968,-74.5819C176.5425,-69.1448 210.8816,-62.7168 238.5156,-57.5439"/>
<polygon fill="#191970" stroke="#191970" points="146.6487,-71.1798 137.4634,-76.46 147.9367,-78.0602 146.6487,-71.1798"/>
</g>
<!-- Node5 -->
<g id="node6" class="node">
<title>Node5</title>
<g id="a_node6"><a xlink:href="classcturtle_1_1Sprite.html" target="_top" xlink:title="cturtle::Sprite">
<polygon fill="#ffffff" stroke="#000000" points="236,-.5 236,-19.5 343,-19.5 343,-.5 236,-.5"/>
<text text-anchor="middle" x="289.5" y="-7.5" font-family="Hack" font-size="10.00" fill="#000000">cturtle::Sprite</text>
</a>
</g>
</g>
<!-- Node0&#45;&gt;Node5 -->
<g id="edge5" class="edge">
<title>Node0&#45;&gt;Node5</title>
<path fill="none" stroke="#191970" d="M113.2749,-71.602C137.6611,-58.9618 174.9549,-40.8002 209,-29 219.4472,-25.379 230.8926,-22.2173 241.7905,-19.5662"/>
<polygon fill="#191970" stroke="#191970" points="111.515,-68.5728 104.2837,-76.3161 114.7655,-74.7724 111.515,-68.5728"/>
</g>
</g>
</svg>
