<?xml version="1.0" encoding="UTF-8" standalone="no"?>
<!DOCTYPE svg PUBLIC "-//W3C//DTD SVG 1.1//EN"
 "http://www.w3.org/Graphics/SVG/1.1/DTD/svg11.dtd">
<!-- Generated by graphviz version 2.40.1 (20161225.0304)
 -->
<!-- Title: cturtle::Color Pages: 1 -->
<svg width="200pt" height="129pt"
 viewBox="0.00 0.00 200.00 129.00" xmlns="http://www.w3.org/2000/svg" xmlns:xlink="http://www.w3.org/1999/xlink">
<g id="graph0" class="graph" transform="scale(1 1) rotate(0) translate(4 125)">
<title>cturtle::Color</title>
<polygon fill="#ffffff" stroke="transparent" points="-4,4 -4,-125 196,-125 196,4 -4,4"/>
<!-- Node1 -->
<g id="node1" class="node">
<title>Node1</title>
<polygon fill="#bfbfbf" stroke="#000000" points="0,-51 0,-70 101,-70 101,-51 0,-51"/>
<text text-anchor="middle" x="50.5" y="-58" font-family="Hack" font-size="10.00" fill="#000000">cturtle::Color</text>
</g>
<!-- Node1&#45;&gt;Node1 -->
<g id="edge1" class="edge">
<title>Node1&#45;&gt;Node1</title>
<path fill="none" stroke="#9a32cd" stroke-dasharray="5,2" d="M111.4261,-63.3235C116.1123,-62.6985 119,-61.7573 119,-60.5 119,-58.4883 111.6075,-57.286 101.2839,-56.8931"/>
<polygon fill="#9a32cd" stroke="#9a32cd" points="110.9846,-59.847 101.2839,-64.1069 111.5238,-66.8262 110.9846,-59.847"/>
<text text-anchor="middle" x="155.5" y="-113" font-family="Hack" font-size="10.00" fill="#000000"> yellow4</text>
<text text-anchor="middle" x="155.5" y="-102" font-family="Hack" font-size="10.00" fill="#000000">wheat2</text>
<text text-anchor="middle" x="155.5" y="-91" font-family="Hack" font-size="10.00" fill="#000000">SteelBlue2</text>
<text text-anchor="middle" x="155.5" y="-80" font-family="Hack" font-size="10.00" fill="#000000">SpringGreen4</text>
<text text-anchor="middle" x="155.5" y="-69" font-family="Hack" font-size="10.00" fill="#000000">SlateGray1</text>
<text text-anchor="middle" x="155.5" y="-58" font-family="Hack" font-size="10.00" fill="#000000">SlateBlue2</text>
<text text-anchor="middle" x="155.5" y="-47" font-family="Hack" font-size="10.00" fill="#000000">sea_green</text>
<text text-anchor="middle" x="155.5" y="-36" font-family="Hack" font-size="10.00" fill="#000000">PaleGreen4</text>
<text text-anchor="middle" x="155.5" y="-25" font-family="Hack" font-size="10.00" fill="#000000">OrangeRed3</text>
<text text-anchor="middle" x="155.5" y="-14" font-family="Hack" font-size="10.00" fill="#000000">OrangeRed</text>
<text text-anchor="middle" x="155.5" y="-3" font-family="Hack" font-size="10.00" fill="#000000">...</text>
</g>
</g>
</svg>
