<?xml version="1.0" encoding="UTF-8" standalone="no"?>
<!DOCTYPE svg PUBLIC "-//W3C//DTD SVG 1.1//EN"
 "http://www.w3.org/Graphics/SVG/1.1/DTD/svg11.dtd">
<!-- Generated by graphviz version 2.40.1 (20161225.0304)
 -->
<!-- Title: cturtle::SceneObject Pages: 1 -->
<svg width="570pt" height="196pt"
 viewBox="0.00 0.00 570.00 196.00" xmlns="http://www.w3.org/2000/svg" xmlns:xlink="http://www.w3.org/1999/xlink">
<g id="graph0" class="graph" transform="scale(1 1) rotate(0) translate(4 192)">
<title>cturtle::SceneObject</title>
<polygon fill="#ffffff" stroke="transparent" points="-4,4 -4,-192 566,-192 566,4 -4,4"/>
<!-- Node1 -->
<g id="node1" class="node">
<title>Node1</title>
<polygon fill="#bfbfbf" stroke="#000000" points="197,-.5 197,-19.5 334,-19.5 334,-.5 197,-.5"/>
<text text-anchor="middle" x="265.5" y="-7.5" font-family="Hack" font-size="10.00" fill="#000000">cturtle::SceneObject</text>
</g>
<!-- Node2 -->
<g id="node2" class="node">
<title>Node2</title>
<g id="a_node2"><a xlink:href="classcturtle_1_1AffineTransform.html" target="_top" xlink:title="The AffineTransform class provides a myriad of functions to simply transform points. This class it the backbone of almost all cartesian plane math in CTurtle. An adapted 3x3 matrix of the following link: http://www.opengl&#45;tutorial.org/beginners&#45;tutorials/tutorial&#45;3&#45;matrices/. ">
<polygon fill="#ffffff" stroke="#000000" points="0,-118 0,-137 161,-137 161,-118 0,-118"/>
<text text-anchor="middle" x="80.5" y="-125" font-family="Hack" font-size="10.00" fill="#000000">cturtle::AffineTransform</text>
</a>
</g>
</g>
<!-- Node2&#45;&gt;Node1 -->
<g id="edge1" class="edge">
<title>Node2&#45;&gt;Node1</title>
<path fill="none" stroke="#9a32cd" stroke-dasharray="5,2" d="M99.3325,-111.2509C122.1796,-92.0738 162.3844,-60.0157 200.5,-38 212.8422,-30.8711 227.3453,-24.4537 239.5167,-19.5668"/>
<polygon fill="#9a32cd" stroke="#9a32cd" points="96.8291,-108.7847 91.4665,-117.9222 101.3569,-114.1233 96.8291,-108.7847"/>
<text text-anchor="middle" x="231" y="-41" font-family="Hack" font-size="10.00" fill="#000000"> transform</text>
</g>
<!-- Node3 -->
<g id="node3" class="node">
<title>Node3</title>
<g id="a_node3"><a xlink:href="classcturtle_1_1IDrawableGeometry.html" target="_top" xlink:title="IDrawableGeometry is a base class, intended to be inherited from by all drawable objects. This class just contains a simple virtual drawing function, intended to be inherited from and to overload the draw function. This allows for the storage of drawable geometry in a generic fashion. ">
<polygon fill="#ffffff" stroke="#000000" points="179,-118 179,-137 352,-137 352,-118 179,-118"/>
<text text-anchor="middle" x="265.5" y="-125" font-family="Hack" font-size="10.00" fill="#000000">cturtle::IDrawableGeometry</text>
</a>
</g>
</g>
<!-- Node3&#45;&gt;Node1 -->
<g id="edge2" class="edge">
<title>Node3&#45;&gt;Node1</title>
<path fill="none" stroke="#9a32cd" stroke-dasharray="5,2" d="M265.5,-107.5662C265.5,-82.0834 265.5,-38.9662 265.5,-19.7484"/>
<polygon fill="#9a32cd" stroke="#9a32cd" points="262.0001,-107.8844 265.5,-117.8845 269.0001,-107.8845 262.0001,-107.8844"/>
<text text-anchor="middle" x="302" y="-41" font-family="Hack" font-size="10.00" fill="#000000"> unownedGeom</text>
</g>
<!-- Node4 -->
<g id="node4" class="node">
<title>Node4</title>
<g id="a_node4"><a xlink:href="structcturtle_1_1Color.html" target="_top" xlink:title="Color: Unsigned 8&#45;bit RGB Color Implementation Just contains R, G and B elements. Color Defines an in...">
<polygon fill="#ffffff" stroke="#000000" points="370,-118 370,-137 471,-137 471,-118 370,-118"/>
<text text-anchor="middle" x="420.5" y="-125" font-family="Hack" font-size="10.00" fill="#000000">cturtle::Color</text>
</a>
</g>
</g>
<!-- Node4&#45;&gt;Node1 -->
<g id="edge3" class="edge">
<title>Node4&#45;&gt;Node1</title>
<path fill="none" stroke="#9a32cd" stroke-dasharray="5,2" d="M408.9689,-109.4912C395.3137,-89.4784 370.8162,-57.4287 342.5,-38 330.771,-29.9523 316.456,-23.9194 303.365,-19.5552"/>
<polygon fill="#9a32cd" stroke="#9a32cd" points="406.1671,-111.5991 414.6129,-117.9958 411.9996,-107.7284 406.1671,-111.5991"/>
<text text-anchor="middle" x="373" y="-41" font-family="Hack" font-size="10.00" fill="#000000"> color</text>
</g>
<!-- Node4&#45;&gt;Node4 -->
<g id="edge4" class="edge">
<title>Node4&#45;&gt;Node4</title>
<path fill="none" stroke="#9a32cd" stroke-dasharray="5,2" d="M444.9475,-140.613C466.3289,-146.6674 489,-142.2964 489,-127.5 489,-110.4375 458.8529,-107.2383 435.3004,-117.9023"/>
<polygon fill="#9a32cd" stroke="#9a32cd" points="445.8944,-137.233 435.3004,-137.0977 443.4977,-143.8099 445.8944,-137.233"/>
<text text-anchor="middle" x="525.5" y="-180" font-family="Hack" font-size="10.00" fill="#000000"> yellow4</text>
<text text-anchor="middle" x="525.5" y="-169" font-family="Hack" font-size="10.00" fill="#000000">wheat2</text>
<text text-anchor="middle" x="525.5" y="-158" font-family="Hack" font-size="10.00" fill="#000000">SteelBlue2</text>
<text text-anchor="middle" x="525.5" y="-147" font-family="Hack" font-size="10.00" fill="#000000">SpringGreen4</text>
<text text-anchor="middle" x="525.5" y="-136" font-family="Hack" font-size="10.00" fill="#000000">SlateGray1</text>
<text text-anchor="middle" x="525.5" y="-125" font-family="Hack" font-size="10.00" fill="#000000">SlateBlue2</text>
<text text-anchor="middle" x="525.5" y="-114" font-family="Hack" font-size="10.00" fill="#000000">sea_green</text>
<text text-anchor="middle" x="525.5" y="-103" font-family="Hack" font-size="10.00" fill="#000000">PaleGreen4</text>
<text text-anchor="middle" x="525.5" y="-92" font-family="Hack" font-size="10.00" fill="#000000">OrangeRed3</text>
<text text-anchor="middle" x="525.5" y="-81" font-family="Hack" font-size="10.00" fill="#000000">OrangeRed</text>
<text text-anchor="middle" x="525.5" y="-70" font-family="Hack" font-size="10.00" fill="#000000">...</text>
</g>
</g>
</svg>
