<?xml version="1.0" encoding="UTF-8" standalone="no"?>
<!DOCTYPE svg PUBLIC "-//W3C//DTD SVG 1.1//EN"
 "http://www.w3.org/Graphics/SVG/1.1/DTD/svg11.dtd">
<!-- Generated by graphviz version 2.40.1 (20161225.0304)
 -->
<!-- Title: cturtle::PenState Pages: 1 -->
<svg width="570pt" height="207pt"
 viewBox="0.00 0.00 570.00 207.00" xmlns="http://www.w3.org/2000/svg" xmlns:xlink="http://www.w3.org/1999/xlink">
<g id="graph0" class="graph" transform="scale(1 1) rotate(0) translate(4 203)">
<title>cturtle::PenState</title>
<polygon fill="#ffffff" stroke="transparent" points="-4,4 -4,-203 566,-203 566,4 -4,4"/>
<!-- Node1 -->
<g id="node1" class="node">
<title>Node1</title>
<polygon fill="#bfbfbf" stroke="#000000" points="206,-.5 206,-19.5 325,-19.5 325,-.5 206,-.5"/>
<text text-anchor="middle" x="265.5" y="-7.5" font-family="Hack" font-size="10.00" fill="#000000">cturtle::PenState</text>
</g>
<!-- Node2 -->
<g id="node2" class="node">
<title>Node2</title>
<g id="a_node2"><a xlink:href="classcturtle_1_1AffineTransform.html" target="_top" xlink:title="The AffineTransform class provides a myriad of functions to simply transform points. This class it the backbone of almost all cartesian plane math in CTurtle. An adapted 3x3 matrix of the following link: http://www.opengl&#45;tutorial.org/beginners&#45;tutorials/tutorial&#45;3&#45;matrices/. ">
<polygon fill="#ffffff" stroke="#000000" points="0,-129 0,-148 161,-148 161,-129 0,-129"/>
<text text-anchor="middle" x="80.5" y="-136" font-family="Hack" font-size="10.00" fill="#000000">cturtle::AffineTransform</text>
</a>
</g>
</g>
<!-- Node2&#45;&gt;Node1 -->
<g id="edge1" class="edge">
<title>Node2&#45;&gt;Node1</title>
<path fill="none" stroke="#9a32cd" stroke-dasharray="5,2" d="M97.2814,-121.6816C119.4248,-100.1707 160.3141,-62.7472 200.5,-38 212.4272,-30.655 226.6215,-24.2991 238.6985,-19.508"/>
<polygon fill="#9a32cd" stroke="#9a32cd" points="94.6841,-119.3269 90.0074,-128.8338 99.5919,-124.3183 94.6841,-119.3269"/>
<text text-anchor="middle" x="231" y="-46.5" font-family="Hack" font-size="10.00" fill="#000000"> transform</text>
</g>
<!-- Node3 -->
<g id="node3" class="node">
<title>Node3</title>
<g id="a_node3"><a xlink:href="classcturtle_1_1IDrawableGeometry.html" target="_top" xlink:title="IDrawableGeometry is a base class, intended to be inherited from by all drawable objects. This class just contains a simple virtual drawing function, intended to be inherited from and to overload the draw function. This allows for the storage of drawable geometry in a generic fashion. ">
<polygon fill="#ffffff" stroke="#000000" points="179,-129 179,-148 352,-148 352,-129 179,-129"/>
<text text-anchor="middle" x="265.5" y="-136" font-family="Hack" font-size="10.00" fill="#000000">cturtle::IDrawableGeometry</text>
</a>
</g>
</g>
<!-- Node3&#45;&gt;Node1 -->
<g id="edge2" class="edge">
<title>Node3&#45;&gt;Node1</title>
<path fill="none" stroke="#9a32cd" stroke-dasharray="5,2" d="M265.5,-118.6733C265.5,-90.7236 265.5,-40.8037 265.5,-19.7705"/>
<polygon fill="#9a32cd" stroke="#9a32cd" points="262.0001,-118.8416 265.5,-128.8416 269.0001,-118.8416 262.0001,-118.8416"/>
<text text-anchor="middle" x="287" y="-46.5" font-family="Hack" font-size="10.00" fill="#000000"> cursor</text>
</g>
<!-- Node4 -->
<g id="node4" class="node">
<title>Node4</title>
<g id="a_node4"><a xlink:href="structcturtle_1_1Color.html" target="_top" xlink:title="Color: Unsigned 8&#45;bit RGB Color Implementation Just contains R, G and B elements. Color Defines an in...">
<polygon fill="#ffffff" stroke="#000000" points="370,-129 370,-148 471,-148 471,-129 370,-129"/>
<text text-anchor="middle" x="420.5" y="-136" font-family="Hack" font-size="10.00" fill="#000000">cturtle::Color</text>
</a>
</g>
</g>
<!-- Node4&#45;&gt;Node1 -->
<g id="edge3" class="edge">
<title>Node4&#45;&gt;Node1</title>
<path fill="none" stroke="#9a32cd" stroke-dasharray="5,2" d="M404.7391,-121.3235C393.1286,-108.9253 376.7684,-91.9774 361.5,-78 340.764,-59.0174 335.5272,-54.1267 312.5,-38 303.0086,-31.3529 291.8895,-24.6821 282.8496,-19.52"/>
<polygon fill="#9a32cd" stroke="#9a32cd" points="402.2542,-123.7911 411.6238,-128.7369 407.3835,-119.0276 402.2542,-123.7911"/>
<text text-anchor="middle" x="371" y="-52" font-family="Hack" font-size="10.00" fill="#000000"> fillColor</text>
<text text-anchor="middle" x="371" y="-41" font-family="Hack" font-size="10.00" fill="#000000">penColor</text>
</g>
<!-- Node4&#45;&gt;Node4 -->
<g id="edge4" class="edge">
<title>Node4&#45;&gt;Node4</title>
<path fill="none" stroke="#9a32cd" stroke-dasharray="5,2" d="M443.7308,-151.8642C465.4596,-158.7501 489,-154.2954 489,-138.5 489,-120.3672 457.977,-117.1798 434.2855,-128.9378"/>
<polygon fill="#9a32cd" stroke="#9a32cd" points="444.8692,-148.5496 434.2855,-148.0622 442.2552,-155.0433 444.8692,-148.5496"/>
<text text-anchor="middle" x="525.5" y="-191" font-family="Hack" font-size="10.00" fill="#000000"> yellow4</text>
<text text-anchor="middle" x="525.5" y="-180" font-family="Hack" font-size="10.00" fill="#000000">wheat2</text>
<text text-anchor="middle" x="525.5" y="-169" font-family="Hack" font-size="10.00" fill="#000000">SteelBlue2</text>
<text text-anchor="middle" x="525.5" y="-158" font-family="Hack" font-size="10.00" fill="#000000">SpringGreen4</text>
<text text-anchor="middle" x="525.5" y="-147" font-family="Hack" font-size="10.00" fill="#000000">SlateGray1</text>
<text text-anchor="middle" x="525.5" y="-136" font-family="Hack" font-size="10.00" fill="#000000">SlateBlue2</text>
<text text-anchor="middle" x="525.5" y="-125" font-family="Hack" font-size="10.00" fill="#000000">sea_green</text>
<text text-anchor="middle" x="525.5" y="-114" font-family="Hack" font-size="10.00" fill="#000000">PaleGreen4</text>
<text text-anchor="middle" x="525.5" y="-103" font-family="Hack" font-size="10.00" fill="#000000">OrangeRed3</text>
<text text-anchor="middle" x="525.5" y="-92" font-family="Hack" font-size="10.00" fill="#000000">OrangeRed</text>
<text text-anchor="middle" x="525.5" y="-81" font-family="Hack" font-size="10.00" fill="#000000">...</text>
</g>
</g>
</svg>
